PathFileType	4	(X/Y/Z)	D:\MotionData\Pi-Spi Study\20230118_AMCsubject1\Trimmed_right_horiz_add01_rotated.trc
DataRate	CameraRate	NumFrames	NumMarkers	Units	OrigDataRate	OrigDataStartFrame	OrigNumFrames
200.00	200.00	       7	35	mm	200.00	51	       200
Frame#	Time	C7			Sternum			r_AMC1			r_AMC2			r_AMC3			l_AMC1			l_AMC2			l_AMC3			PX			T8			r_humerous			r_elbow_medial			r_elbow_lateral			r_forearm			r_wrist_radius			r_wrist_ulna			r_MCP_1			r_MCP_3			l_humerous			l_elbow_medial			l_elbow_lateral			l_forearm			l_wrist_radius			l_wrist_ulna			l_MCP_1			l_MCP_3			r_ASIS			r_PSIS			l_ASIS			l_PSIS			r_IC			l_IC			TS			AI			AA			
		X1	Y1	Z1	X2	Y2	Z2	X3	Y3	Z3	X4	Y4	Z4	X5	Y5	Z5	X6	Y6	Z6	X7	Y7	Z7	X8	Y8	Z8	X9	Y9	Z9	X10	Y10	Z10	X11	Y11	Z11	X12	Y12	Z12	X13	Y13	Z13	X14	Y14	Z14	X15	Y15	Z15	X16	Y16	Z16	X17	Y17	Z17	X18	Y18	Z18	X19	Y19	Z19	X20	Y20	Z20	X21	Y21	Z21	X22	Y22	Z22	X23	Y23	Z23	X24	Y24	Z24	X25	Y25	Z25	X26	Y26	Z26	X27	Y27	Z27	X28	Y28	Z28	X29	Y29	Z29	X30	Y30	Z30	X31	Y31	Z31	X32	Y32	Z32	X33	Y33	Z33	X34	Y34	Z34	X35	Y35	Z35	

51	0.25	163.6819	1374.0044	-218.7724	300.9714	1315.6008	-212.9706	181.1283	1357.7833	-59.7865	218.9209	1389.0239	-56.3629	213.0879	1402.8489	-98.1986	186.082	1319.07	-381.4656	225.522	1315.7146	-414.0614	245.0092	1354.8414	-384.1295	367.9617	1126.1084	-205.1475	133.1027	1187.1314	-220.5692	370.8855	1361.7412	-148.5348	489.5072	1275.4561	-187.5849	507.345	1329.3272	-160.7047	638.156	1351.4143	-269.7361	686.6697	1323.7422	-320.1845	677.5444	1373.7906	-328.7785	748.1	1337.8365	-380.1755	743.814	1385.7516	-380.5931	318.8554	1127.3431	-402.7438	250.2432	993.1156	-389.6008	271.1925	991.9475	-440.3688	334.7766	847.4478	-459.1422	382.1636	779.2948	-437.6834	340.3724	770.5461	-454.0051	399.9582	702.2345	-447.508	352.6449	696.1971	-459.4986	338.4817	909.7909	-69.4421	157.4436	927.9718	-165.5715	359.4082	891.8105	-326.9346	166.239	920.7886	-267.878	253.2285	970.3378	-46.3399	272.7547	939.0805	-372.1928	92.2251	1297.6633	-103.5952	121.4478	1209.4673	-61.4854	169.1863	1363.7721	-0.3339
52	0.255	163.6684	1373.9849	-218.7581	300.9671	1315.6156	-212.96	181.1399	1357.78	-59.8015	218.948	1388.9519	-56.3258	213.1091	1402.7967	-98.2003	186.0223	1319.1254	-381.4251	225.5051	1315.7235	-414.0669	245.0061	1354.8477	-384.1268	368.0253	1126.1031	-205.0998	133.1108	1187.1382	-220.5584	370.885	1361.8055	-148.5511	489.5304	1275.4407	-187.6184	507.3415	1329.3411	-160.6813	638.1993	1351.4576	-269.6819	686.7263	1323.7662	-320.1404	677.5621	1373.8061	-328.7149	748.1432	1337.8596	-380.124	743.8182	1385.8494	-380.5147	318.809	1127.4183	-402.7423	249.809	993.1976	-389.5765	271.1885	991.955	-440.3737	334.7535	847.4272	-459.1647	382.1382	779.2932	-437.6905	340.3176	770.7145	-454.1423	399.9219	702.2287	-447.5408	352.6252	696.1752	-459.5113	338.3035	909.5834	-69.7222	157.4424	927.9617	-165.5797	359.4433	891.8295	-326.9291	166.2314	920.7806	-267.8922	253.2128	970.3401	-46.3467	272.7686	939.0773	-372.1899	92.2235	1297.668	-103.5693	121.3811	1209.4138	-61.439	169.1577	1363.7327	-0.32962
53	0.26	163.6614	1373.9793	-218.7557	300.9547	1315.6038	-212.9564	181.1361	1357.7465	-59.7848	218.9349	1388.9377	-56.2311	213.1033	1402.8207	-98.2084	186.0104	1319.0959	-381.4343	225.501	1315.717	-414.0635	244.9902	1354.8497	-384.1357	367.9916	1126.0682	-205.1581	133.129	1187.1233	-220.5665	370.9126	1361.7313	-148.5522	489.5648	1275.4608	-187.5697	507.3573	1329.3507	-160.6641	638.2203	1351.4807	-269.6355	686.7057	1323.8872	-320.0763	677.5881	1373.929	-328.6391	748.1948	1337.9087	-380.1097	743.8962	1385.8547	-380.4418	318.8564	1127.3719	-402.7462	249.8235	993.2111	-389.6014	271.1984	991.9658	-440.3922	334.7212	847.4758	-459.1671	382.1176	779.2864	-437.7065	340.338	770.5687	-454.0852	399.895	702.1946	-447.5626	352.5995	696.2002	-459.5285	338.287	909.5655	-69.7104	157.4363	927.9593	-165.6131	359.4348	891.8241	-326.9186	166.2541	920.7974	-267.8986	253.2415	970.308	-46.3891	272.5904	939.2124	-372.2942	92.233	1297.6578	-103.529	121.4109	1209.47	-61.4099	169.1927	1363.72	-0.32257
54	0.265	163.6484	1373.9828	-218.7536	300.9659	1315.5787	-212.9639	181.1529	1357.7388	-59.7875	218.8894	1388.9917	-56.3438	213.1094	1402.8059	-98.1669	186.0313	1319.0924	-381.4201	225.5115	1315.7341	-414.0775	244.9694	1354.8503	-384.1267	368.03	1126.1124	-205.1371	133.1107	1187.123	-220.5816	370.8853	1361.8463	-148.5161	489.536	1275.5563	-187.5955	507.3411	1329.3661	-160.636	638.2562	1351.5312	-269.5841	686.7635	1323.8485	-320.0727	677.618	1373.9408	-328.596	748.2276	1337.9701	-380.034	744.0596	1386.1002	-380.276	318.8301	1127.3657	-402.757	249.82	993.1989	-389.6093	271.1877	991.9746	-440.3967	334.6991	847.4505	-459.2013	382.1149	779.2842	-437.7287	340.2509	770.6232	-454.1101	399.8391	702.207	-447.5815	352.5919	696.1998	-459.5582	338.2985	909.5546	-69.7066	157.4463	927.978	-165.6086	359.4309	891.8377	-326.9388	166.2455	920.8036	-267.9109	253.2306	970.3047	-46.3581	272.6852	939.1397	-372.1981	92.2375	1297.6271	-103.547	121.4485	1209.4939	-61.4106	169.1979	1363.708	-0.31911
55	0.27	163.6521	1373.9869	-218.743	300.9681	1315.5881	-212.9604	181.1316	1357.7478	-59.7695	218.8323	1389.0975	-56.3397	213.1542	1402.7777	-98.1627	186.0648	1319.0376	-381.4554	225.4608	1315.7257	-414.0624	244.9649	1354.8632	-384.1238	368.0125	1126.1022	-205.1054	133.1237	1187.1262	-220.5935	370.8867	1362.1321	-148.3647	489.5711	1275.5287	-187.5574	507.4286	1329.4142	-160.5658	638.2962	1351.5405	-269.5597	686.7675	1323.9733	-320.0154	677.6068	1374.0314	-328.5474	748.2572	1338.0395	-379.9817	744.1081	1386.1591	-380.2127	318.8489	1127.3201	-402.7604	249.8069	993.2027	-389.6208	271.1861	991.9644	-440.409	334.7012	847.4915	-459.2199	382.0853	779.2771	-437.7626	340.3126	770.5723	-454.0942	399.822	702.2052	-447.6335	352.5108	696.2135	-459.5961	338.2946	909.5628	-69.7217	157.4598	927.965	-165.6132	359.435	891.7955	-326.9288	166.2563	920.8041	-267.9135	253.2066	970.3192	-46.3503	272.6707	939.1884	-372.2358	92.243	1297.6388	-103.5101	121.4102	1209.3882	-61.4344	169.2206	1363.6991	-0.32881
56	0.275	163.6325	1373.9592	-218.7797	300.9636	1315.5763	-212.9596	181.1464	1357.7106	-59.7733	218.9088	1388.9839	-56.2901	213.1437	1402.798	-98.1663	186.029	1319.0689	-381.4351	225.4915	1315.7444	-414.069	244.9639	1354.8582	-384.1265	368.0386	1126.1279	-205.1194	133.131	1187.1315	-220.6025	370.8915	1362.1459	-148.3346	489.5426	1275.6279	-187.5434	507.3366	1329.3787	-160.5723	638.297	1351.6445	-269.4907	686.8456	1323.9321	-319.9488	677.6426	1374.0865	-328.4737	748.2546	1338.1204	-379.9284	744.1262	1386.2328	-380.1412	318.8204	1127.3048	-402.7547	249.8066	993.215	-389.627	271.1686	991.9629	-440.4131	334.677	847.5	-459.2393	382.0682	779.2748	-437.7942	340.2532	770.5534	-454.1461	399.8041	702.2017	-447.6484	352.5023	696.2105	-459.6064	338.2921	909.5826	-69.7216	157.435	927.9851	-165.6246	359.4306	891.8323	-326.9517	166.2361	920.8082	-267.9048	253.2393	970.324	-46.3808	272.7222	939.1592	-372.1941	92.2404	1297.611	-103.5095	121.4208	1209.3872	-61.3921	169.2277	1363.6887	-0.32589
57	0.28	163.6472	1373.9758	-218.7491	300.9682	1315.5769	-212.9839	181.1438	1357.7028	-59.7705	218.9157	1388.9893	-56.3223	213.1748	1402.8066	-98.1419	186.0522	1319.0552	-381.4407	225.4763	1315.7438	-414.0771	244.9528	1354.8655	-384.1261	368.0258	1126.1135	-205.144	133.1408	1187.1129	-220.6183	370.8965	1362.1671	-148.3009	489.5866	1275.6064	-187.5295	507.4471	1329.447	-160.5143	638.3287	1351.7694	-269.4396	686.8188	1324.0958	-319.8993	677.6462	1374.1851	-328.4358	748.2856	1338.2164	-379.8641	744.1359	1386.2975	-380.0587	318.8452	1127.3142	-402.8711	249.8029	993.2191	-389.6279	271.1421	991.9777	-440.4347	334.5534	847.5496	-459.2725	382.0236	779.2611	-437.8325	340.2297	770.5149	-454.1316	399.7578	702.199	-447.6854	352.4819	696.2146	-459.6364	338.2958	909.5635	-69.7286	157.4421	927.9828	-165.6461	359.4333	891.8272	-326.9337	166.2611	920.8141	-267.906	253.172	970.3484	-46.3831	272.5875	939.2667	-372.272	92.2404	1297.5851	-103.4889	121.4063	1209.3969	-61.4073	169.2372	1363.6759	-0.30161
